<?xml version="1.0" encoding="utf-8"?>
<!-- Generator: Adobe Illustrator 24.2.1, SVG Export Plug-In . SVG Version: 6.00 Build 0)  -->
<svg version="1.2" baseProfile="tiny" id="Layer_1" xmlns="http://www.w3.org/2000/svg" xmlns:xlink="http://www.w3.org/1999/xlink"
	 x="0px" y="0px" viewBox="0 0 245 240" overflow="visible" xml:space="preserve">
<path fill="#7289DA" d="M100.78,100.68c-6.84,0-12.24,6-12.24,13.32s5.52,13.32,12.24,13.32c6.84,0,12.24-6,12.24-13.32
	C113.14,106.68,107.62,100.68,100.78,100.68z M144.58,100.68c-6.84,0-12.24,6-12.24,13.32s5.52,13.32,12.24,13.32
	c6.84,0,12.24-6,12.24-13.32S151.42,100.68,144.58,100.68z"/>
<path fill="#7289DA" d="M202.9,0H42.1C28.54,0,17.5,11.04,17.5,24.72v162.24c0,13.68,11.04,24.72,24.6,24.72h136.08l-6.36-22.2
	l15.36,14.28l14.52,13.44l25.8,22.8V24.72C227.5,11.04,216.46,0,202.9,0z M156.58,156.72c0,0-4.32-5.16-7.92-9.72
	c15.72-4.44,21.72-14.28,21.72-14.28c-4.92,3.24-9.6,5.52-13.8,7.08c-6,2.52-11.76,4.2-17.4,5.16c-11.52,2.16-22.08,1.56-31.08-0.12
	c-6.84-1.32-12.72-3.24-17.64-5.16c-2.76-1.08-5.76-2.4-8.76-4.08c-0.36-0.24-0.72-0.36-1.08-0.6c-0.24-0.12-0.36-0.24-0.48-0.36
	c-2.16-1.2-3.36-2.04-3.36-2.04s5.76,9.6,21,14.16c-3.6,4.56-8.04,9.96-8.04,9.96c-26.52-0.84-36.6-18.24-36.6-18.24
	c0-38.64,17.28-69.96,17.28-69.96c17.28-12.96,33.72-12.6,33.72-12.6l1.2,1.44c-21.6,6.24-31.56,15.72-31.56,15.72
	s2.64-1.44,7.08-3.48c12.84-5.64,23.04-7.2,27.24-7.56c0.72-0.12,1.32-0.24,2.04-0.24c7.32-0.96,15.6-1.2,24.24-0.24
	c11.4,1.32,23.64,4.68,36.12,11.52c0,0-9.48-9-29.88-15.24l1.68-1.92c0,0,16.44-0.36,33.72,12.6c0,0,17.28,31.32,17.28,69.96
	C193.3,138.48,183.1,155.88,156.58,156.72z"/>
</svg>
