<?xml version="1.0" encoding="utf-8"?>
<!-- Generator: Adobe Illustrator 24.2.1, SVG Export Plug-In . SVG Version: 6.00 Build 0)  -->
<svg version="1.2" baseProfile="tiny" id="Layer_1" xmlns="http://www.w3.org/2000/svg" xmlns:xlink="http://www.w3.org/1999/xlink"
	 x="0px" y="0px" viewBox="0 0 283.5 283.5" overflow="visible" xml:space="preserve">
<path fill-rule="evenodd" fill="#4680C2" d="M98.23,0h87.03c79.43,0,98.23,18.81,98.23,98.23v87.03c0,79.43-18.81,98.23-98.23,98.23
	H98.23C18.81,283.5,0,264.69,0,185.27V98.23C0,18.81,18.81,0,98.23,0"/>
<path fill-rule="evenodd" fill="#FFFFFF" d="M232.08,97.63c1.4-4.4,0-7.6-6.2-7.6h-20.61c-5.2,0-7.6,2.8-9,5.8
	c0,0-10.6,25.61-25.41,42.21c-4.8,4.8-7,6.4-9.6,6.4c-1.4,0-3.2-1.6-3.2-6V97.43c0-5.2-1.6-7.6-6-7.6h-32.41c-3.2,0-5.2,2.4-5.2,4.8
	c0,5,7.4,6.2,8.2,20.21v30.41c0,6.6-1.2,7.8-3.8,7.8c-7,0-24.01-25.81-34.21-55.22c-2-5.8-4-8-9.2-8H54.62c-6,0-7,2.8-7,5.8
	c0,5.4,7,32.61,32.61,68.62c17.01,24.61,41.21,37.81,63.02,37.81c13.2,0,14.81-3,14.81-8v-18.61c0-6,1.2-7,5.4-7
	c3,0,8.4,1.6,20.61,13.4c14,14,16.41,20.41,24.21,20.41h20.61c6,0,8.8-3,7.2-8.8c-1.8-5.8-8.6-14.21-17.41-24.21
	c-4.8-5.6-12-11.8-14.21-14.81c-3-4-2.2-5.6,0-9.2C204.27,145.25,229.48,109.64,232.08,97.63"/>
</svg>
