<?xml version="1.0" encoding="utf-8"?>
<!-- Generator: Adobe Illustrator 24.2.1, SVG Export Plug-In . SVG Version: 6.00 Build 0)  -->
<svg version="1.2" baseProfile="tiny" id="Слой_1"
	 xmlns="http://www.w3.org/2000/svg" xmlns:xlink="http://www.w3.org/1999/xlink" x="0px" y="0px" viewBox="0 0 32 32"
	 overflow="visible" xml:space="preserve">
<path fill="#3F8AE0" d="M27.57,6.16c-2.77-2.23-7.15-2.6-7.34-2.62c-0.29-0.03-0.57,0.14-0.69,0.41c-0.01,0.02-0.1,0.24-0.21,0.58
	c1.83,0.31,4.08,0.93,6.12,2.19c0.33,0.2,0.43,0.63,0.22,0.96c-0.13,0.21-0.36,0.33-0.59,0.33c-0.13,0-0.25-0.03-0.37-0.1
	c-3.5-2.17-7.87-2.28-8.71-2.28s-5.21,0.1-8.71,2.27C6.96,8.1,6.53,8,6.33,7.68c-0.2-0.33-0.1-0.76,0.22-0.96
	c2.04-1.26,4.29-1.89,6.12-2.19c-0.11-0.34-0.2-0.56-0.21-0.58c-0.12-0.27-0.4-0.44-0.69-0.41C11.59,3.55,7.2,3.93,4.4,6.19
	C2.93,7.54,0,15.47,0,22.32c0,0.12,0.03,0.24,0.09,0.34c2.02,3.55,7.54,4.48,8.8,4.52c0.01,0,0.01,0,0.02,0
	c0.22,0,0.43-0.11,0.56-0.29l1.27-1.75c-3.43-0.89-5.18-2.39-5.29-2.48c-0.29-0.25-0.32-0.69-0.06-0.98
	c0.25-0.29,0.69-0.32,0.98-0.06C6.43,21.66,9.65,24.4,16,24.4c6.36,0,9.59-2.75,9.62-2.78c0.29-0.25,0.73-0.22,0.98,0.07
	c0.25,0.29,0.23,0.73-0.06,0.98c-0.1,0.09-1.85,1.59-5.29,2.48l1.27,1.75c0.13,0.18,0.34,0.29,0.56,0.29c0.01,0,0.01,0,0.02,0
	c1.26-0.04,6.78-0.97,8.8-4.52c0.06-0.11,0.09-0.22,0.09-0.34C32,15.47,29.07,7.54,27.57,6.16z M11.48,19.53
	c-1.34,0-2.43-1.25-2.43-2.78s1.09-2.78,2.43-2.78s2.43,1.25,2.43,2.78S12.82,19.53,11.48,19.53z M20.52,19.53
	c-1.34,0-2.43-1.25-2.43-2.78s1.09-2.78,2.43-2.78s2.43,1.25,2.43,2.78S21.87,19.53,20.52,19.53z"/>
</svg>
