<?xml version="1.0" encoding="utf-8"?>
<!-- Generator: Adobe Illustrator 24.2.1, SVG Export Plug-In . SVG Version: 6.00 Build 0)  -->
<svg version="1.2" baseProfile="tiny" id="Слой_1"
	 xmlns="http://www.w3.org/2000/svg" xmlns:xlink="http://www.w3.org/1999/xlink" x="0px" y="0px" viewBox="0 0 28 28"
	 overflow="visible" xml:space="preserve">
<desc>Created with Sketch.</desc>
<g id="Page-1">
	<g id="logo_vk_28">
		<rect fill="none" width="28" height="28"/>
		<path id="_x21B3_-Icon-Color" fill="#3F8AE0" d="M17.37,3C23.53,3,25,4.47,25,10.63v6.75l0,0c0,6.16-1.47,7.63-7.63,7.63h-6.75
			l0,0C4.47,25,3,23.53,3,17.37v-6.75l0,0C3,4.47,4.47,3,10.63,3H17.37L17.37,3z M8.73,9.88h-1.6c-0.46,0-0.55,0.22-0.55,0.45
			c0,0.42,0.54,2.53,2.53,5.32c1.33,1.9,3.19,2.94,4.89,2.94c1.02,0,1.15-0.23,1.15-0.62v-1.44c0-0.46,0.1-0.55,0.42-0.55
			c0.24,0,0.65,0.12,1.6,1.04c1.09,1.09,1.27,1.58,1.88,1.58h1.6c0.46,0,0.69-0.23,0.56-0.68c-0.14-0.45-0.66-1.1-1.35-1.88
			c-0.37-0.44-0.93-0.92-1.1-1.16c-0.24-0.31-0.17-0.44,0-0.71l0.03-0.04c0.24-0.34,1.94-2.78,2.13-3.65c0.1-0.34,0-0.59-0.49-0.59
			h-1.6c-0.41,0-0.6,0.22-0.7,0.45c0,0-0.82,1.99-1.97,3.28c-0.37,0.37-0.54,0.49-0.75,0.49c-0.1,0-0.25-0.12-0.25-0.46v-3.18
			c0-0.41-0.12-0.59-0.46-0.59h-2.52c-0.25,0-0.41,0.19-0.41,0.37c0,0.39,0.58,0.48,0.64,1.56v2.36c0,0.52-0.09,0.61-0.3,0.61
			c-0.54,0-1.87-2-2.65-4.28C9.29,10.05,9.14,9.88,8.73,9.88z"/>
	</g>
</g>
</svg>
