<?xml version="1.0" encoding="utf-8"?>
<!-- Generator: Adobe Illustrator 24.2.1, SVG Export Plug-In . SVG Version: 6.00 Build 0)  -->
<svg version="1.2" baseProfile="tiny" id="Слой_1"
	 xmlns="http://www.w3.org/2000/svg" xmlns:xlink="http://www.w3.org/1999/xlink" x="0px" y="0px" viewBox="0 0 32 32"
	 overflow="visible" xml:space="preserve">
<path fill-rule="evenodd" fill="#221E1B" d="M16.01,0.61c-8.83,0-16,7.16-16,16c0,7.07,4.58,13.07,10.94,15.18
	c0.8,0.15,1.09-0.35,1.09-0.77c0-0.38-0.01-1.39-0.02-2.72c-4.45,0.97-5.39-2.14-5.39-2.14c-0.73-1.85-1.78-2.34-1.78-2.34
	c-1.45-0.99,0.11-0.97,0.11-0.97c1.61,0.11,2.45,1.65,2.45,1.65c1.43,2.45,3.74,1.74,4.66,1.33c0.15-1.03,0.56-1.74,1.02-2.14
	c-3.55-0.4-7.29-1.78-7.29-7.91c0-1.75,0.62-3.17,1.65-4.29c-0.16-0.4-0.71-2.03,0.16-4.23c0,0,1.34-0.43,4.4,1.64
	c1.28-0.35,2.64-0.53,4.01-0.54c1.36,0.01,2.73,0.18,4.01,0.54c3.05-2.07,4.4-1.64,4.4-1.64c0.87,2.2,0.32,3.83,0.16,4.23
	c1.03,1.12,1.64,2.55,1.64,4.29c0,6.15-3.74,7.5-7.31,7.9c0.57,0.49,1.09,1.47,1.09,2.96c0,2.14-0.02,3.86-0.02,4.39
	c0,0.43,0.29,0.93,1.1,0.77c6.35-2.12,10.93-8.11,10.93-15.18C32.01,7.77,24.85,0.61,16.01,0.61z"/>
</svg>
